<svg id="visual" viewBox="0 0 960 540" width="960" height="540" xmlns="http://www.w3.org/2000/svg" xmlns:xlink="http://www.w3.org/1999/xlink" version="1.1"><rect width="960" height="540" fill="#111"></rect><g><g transform="translate(331 322)"><path d="M61.8 -49.1C73.6 -34.5 72.1 -9.2 64.8 11.5C57.4 32.2 44.2 48.2 26.5 57.8C8.8 67.4 -13.4 70.6 -29.7 62.4C-46 54.3 -56.5 34.8 -59 15.8C-61.4 -3.1 -55.8 -21.6 -44.6 -36C-33.4 -50.4 -16.7 -60.8 4.1 -64.1C25 -67.4 50 -63.6 61.8 -49.1Z" fill="#000"></path></g><g transform="translate(851 365)"><path d="M48.4 -39.7C56.7 -28.3 53.1 -8.5 48.4 10.7C43.7 29.9 38 48.4 24.5 57.4C11 66.4 -10.2 65.8 -24.8 56.7C-39.4 47.7 -47.5 30.2 -49.8 13.3C-52.2 -3.6 -48.8 -19.9 -39.5 -31.6C-30.2 -43.2 -15.1 -50.3 2.5 -52.3C20.1 -54.3 40.2 -51.1 48.4 -39.7Z" fill="#000"></path></g><g transform="translate(496 121)"><path d="M55.6 -42.7C69.9 -26.3 78 -3.3 72.5 14.9C67 33.1 48 46.6 29.3 52.3C10.6 58 -7.7 55.9 -27.1 49.3C-46.6 42.6 -67.3 31.3 -74.1 13.5C-80.9 -4.4 -74 -28.9 -59.3 -45.3C-44.6 -61.7 -22.3 -70.1 -0.9 -69.4C20.6 -68.7 41.2 -59 55.6 -42.7Z" fill="#000"></path></g><g transform="translate(254 10)"><path d="M41.1 -29C52.2 -18.8 59.4 -1.8 55.2 11.1C51.1 24 35.6 32.9 19.9 39.9C4.2 46.8 -11.6 51.9 -24.2 47.1C-36.9 42.3 -46.3 27.5 -48.5 12.6C-50.6 -2.3 -45.5 -17.3 -36.2 -27C-26.9 -36.7 -13.5 -41.1 0.8 -41.7C15 -42.3 30 -39.1 41.1 -29Z" fill="#000"></path></g><g transform="translate(617 454)"><path d="M33.8 -33.1C42.1 -16.6 46 -2.6 43.1 9.7C40.2 22.1 30.6 32.8 18.4 38.8C6.3 44.8 -8.3 46.2 -26.5 42.3C-44.8 38.4 -66.7 29.3 -74 12.6C-81.3 -4.2 -73.9 -28.7 -59.2 -46.7C-44.4 -64.7 -22.2 -76.3 -4.7 -72.5C12.8 -68.7 25.5 -49.6 33.8 -33.1Z" fill="#000"></path></g><g transform="translate(710 190)"><path d="M25.6 -19.7C31.7 -12.8 34.1 -2.2 33.3 10.3C32.6 22.9 28.8 37.4 18.9 43.9C9.1 50.4 -6.8 48.8 -20.1 42.3C-33.4 35.7 -44.1 24.1 -46.3 11.4C-48.5 -1.2 -42.2 -14.9 -33.1 -22.5C-23.9 -30.2 -12 -31.7 -1.1 -30.8C9.8 -29.9 19.5 -26.6 25.6 -19.7Z" fill="#000"></path></g><g transform="translate(121 389)"><path d="M49.8 -37.6C61.5 -24.9 66 -4.4 61.2 12.8C56.3 30.1 42.1 44 25.3 51.9C8.5 59.7 -10.9 61.4 -27.5 54.4C-44 47.5 -57.6 31.9 -62.7 13.2C-67.9 -5.5 -64.6 -27.2 -52.7 -39.9C-40.9 -52.5 -20.4 -56.2 -0.7 -55.6C19 -55.1 38 -50.3 49.8 -37.6Z" fill="#000"></path></g><g transform="translate(39 16)"><path d="M23 -19.4C28.9 -10.9 32.2 -1.4 31.2 8.8C30.2 18.9 24.8 29.7 16.9 32.4C9.1 35.1 -1.3 29.7 -10.8 24.4C-20.3 19.1 -28.9 13.8 -33.3 4.6C-37.8 -4.5 -38.1 -17.6 -31.9 -26.2C-25.6 -34.8 -12.8 -39 -2.2 -37.3C8.5 -35.6 17 -28 23 -19.4Z" fill="#000"></path></g><g transform="translate(20 212)"><path d="M46.5 -34.9C57.2 -23.7 60.6 -4.5 56.7 13.2C52.9 30.9 41.7 47.1 27.9 51.2C14.1 55.2 -2.3 47.1 -18.8 39.1C-35.3 31.2 -51.9 23.4 -54.7 12.1C-57.6 0.8 -46.8 -13.9 -35.4 -25.3C-24 -36.6 -12 -44.6 3 -47C17.9 -49.3 35.8 -46.1 46.5 -34.9Z" fill="#000"></path></g><g transform="translate(933 85)"><path d="M51.4 -36.4C66.1 -22.6 77.1 -1.2 73.5 17.6C69.8 36.4 51.6 52.7 31.1 61.3C10.7 69.9 -11.9 70.7 -27.8 61.5C-43.7 52.4 -53 33.3 -54.7 15.5C-56.4 -2.4 -50.4 -18.9 -40.1 -31.7C-29.7 -44.5 -14.8 -53.6 1.8 -55C18.4 -56.4 36.7 -50.2 51.4 -36.4Z" fill="#000"></path></g><g transform="translate(269 525)"><path d="M29 -19.8C38.1 -11.6 46.5 0.5 43.9 9.2C41.2 17.9 27.5 23.3 14.4 29.5C1.3 35.6 -11.2 42.4 -19.6 39C-28 35.7 -32.4 22 -35.6 8.1C-38.8 -5.9 -41 -20.2 -34.9 -27.6C-28.8 -35.1 -14.4 -35.8 -2.2 -34C9.9 -32.2 19.8 -28 29 -19.8Z" fill="#000"></path></g></g></svg>